<?xml version="1.0" encoding="utf-8"?>
<!-- Generator: Adobe Illustrator 25.0.0, SVG Export Plug-In . SVG Version: 6.00 Build 0)  -->
<svg version="1.1" id="Capa_1" xmlns="http://www.w3.org/2000/svg" xmlns:xlink="http://www.w3.org/1999/xlink" x="0px" y="0px"
	 viewBox="0 0 85 19.8" style="enable-background:new 0 0 85 19.8;" xml:space="preserve">
<style type="text/css">
	.st0{fill:#F0DB4F;}
	.st1{font-family:'DejaVuSansCondensed-Bold';}
	.st2{font-size:11.5898px;}
</style>
<g id="JavaScript">
	<path class="st0" d="M0,19.8C0,13.2,0,6.6,0,0c28.3,0,56.7,0,85,0c0,6.6,0,13.2,0,19.8C56.7,19.8,28.3,19.8,0,19.8z"/>
	<path d="M1.6,18.3c0-5.6,0-11.1,0-16.7c5.6,0,11.1,0,16.7,0c0,5.6,0,11.1,0,16.7C12.7,18.3,7.2,18.3,1.6,18.3z"/>
	<path class="st0" d="M11.5,15.3c0.4-0.2,0.8-0.5,1.3-0.7c0,0,0,0.1,0.1,0.1c0.2,0.3,0.5,0.6,0.8,0.7c0.4,0.2,0.8,0.2,1.2,0
		c0.3-0.1,0.5-0.2,0.5-0.5c0.1-0.3,0-0.5-0.2-0.7c-0.1-0.1-0.2-0.2-0.4-0.3c-0.3-0.2-0.7-0.3-1-0.5c-0.3-0.1-0.6-0.3-0.8-0.4
		c-0.7-0.4-1-1.1-1-1.9c0-1,0.6-1.7,1.6-2c0.5-0.1,1.1-0.1,1.6,0c0.6,0.2,1,0.6,1.3,1.1c0,0,0,0,0,0c-0.4,0.3-0.8,0.5-1.2,0.8
		c0-0.1-0.1-0.1-0.1-0.2c-0.1-0.2-0.3-0.4-0.6-0.4c-0.2,0-0.4-0.1-0.6,0c-0.6,0.2-0.6,0.9-0.3,1.1c0.1,0.1,0.2,0.2,0.4,0.3
		c0.3,0.1,0.6,0.3,0.9,0.4c0.4,0.2,0.8,0.4,1.2,0.7c0.5,0.4,0.8,0.9,0.8,1.6c0,0.4,0,0.8-0.3,1.2c-0.3,0.5-0.7,0.8-1.1,0.9
		c-1,0.3-2,0.3-3-0.3C12.1,16.2,11.7,15.8,11.5,15.3z"/>
	<path class="st0" d="M9.1,9.2c0.5,0,1,0,1.6,0c0,0,0,0.1,0,0.1c0,1.7,0,3.5,0,5.2c0,0.4,0,0.7-0.1,1.1c-0.2,0.6-0.6,1-1.2,1.2
		C8.6,17,7.9,17,7.2,16.7c-0.5-0.2-0.9-0.7-1.2-1.2c0.4-0.3,0.8-0.5,1.3-0.8c0,0,0,0.1,0,0.1c0.1,0.1,0.1,0.2,0.2,0.3
		c0.3,0.4,0.6,0.5,1.1,0.4c0.3-0.1,0.4-0.3,0.5-0.6c0-0.1,0-0.3,0-0.4c0-1.7,0-3.4,0-5.1C9.1,9.3,9.1,9.3,9.1,9.2z"/>
	<text transform="matrix(1 0 0 1 22.5952 14.0029)" class="st1 st2">JavaScript</text>
</g>
</svg>
